<?xml version="1.0" encoding="UTF-8" standalone="no"?>
<!-- Created with Inkscape (http://www.inkscape.org/) -->
<svg
   xmlns:svg="http://www.w3.org/2000/svg"
   xmlns="http://www.w3.org/2000/svg"
   version="1.0"
   width="800"
   height="202.02901"
   viewBox="0 0 800 202.029"
   id="Layer_1"
   xml:space="preserve"><defs
   id="defs166" />
<g
   id="g3">
	<polygon
   points="187.687,0 181.664,27.668 199.567,27.668 206.24,0 232.636,0 215.562,76.646 188.945,76.633 195.102,47.197 177.688,47.197 170.573,76.633 143.153,76.619 155.816,19.884 132.089,19.871 119.447,76.646 91.243,76.633 103.873,19.871 42.051,19.871 39.997,29.04 78.092,29.04 74.083,47.098 35.66,47.098 33.451,56.715 73.327,56.715 68.875,76.633 0.743,76.633 17.816,0 187.687,0 "
   id="polygon5" />
	<polygon
   points="1.225,140.689 1.225,114.762 14.898,114.762 14.898,118.262 5.415,118.262 5.415,125.631 14.43,125.631 14.43,129.051 5.415,129.051 5.415,137.122 14.898,137.122 14.898,140.689 1.225,140.689 "
   id="polygon7" />
	<path
   d="M 21.578,121.602 L 25.687,121.602 L 25.687,140.69 L 21.578,140.69 L 21.578,121.602 L 21.578,121.602 z M 23.653,118.758 C 22.193,118.758 21.003,117.607 21.003,116.188 C 21.003,114.762 22.193,113.611 23.653,113.611 C 25.078,113.611 26.269,114.729 26.269,116.188 C 26.269,117.606 25.078,118.758 23.653,118.758"
   id="path9" />
	<path
   d="M 48.309,140.689 L 48.309,112.653 L 44.24,112.653 L 44.24,121.448 C 43.196,121.367 42.279,121.294 41.362,121.294 C 35.171,121.294 31.376,125.517 31.376,132.09 C 31.376,137.611 33.712,141.071 38.397,141.071 C 41.362,141.071 43.577,139.465 44.621,137.122 L 44.695,137.122 C 44.507,138.186 44.427,139.692 44.427,140.689 L 48.309,140.689 z M 44.24,130.824 C 44.24,134.084 42.547,137.698 39.514,137.698 C 36.897,137.698 35.712,135.543 35.712,131.701 C 35.712,126.561 37.941,124.559 41.2,124.559 C 42.204,124.559 43.195,124.673 44.239,124.908 L 44.239,130.824 L 44.24,130.824 z "
   id="path11" />
	<path
   d="M 68.314,143.722 C 68.314,145.796 66.319,147.329 62.751,147.329 C 59.98,147.329 58.06,146.178 58.06,144.143 C 58.06,142.844 58.87,141.693 60.168,140.956 C 60.482,140.997 60.864,140.997 61.212,140.997 L 64.786,140.997 C 67.203,140.998 68.314,142.075 68.314,143.722 M 72.383,143.187 C 72.383,139.613 70.04,137.652 65.897,137.652 L 62.631,137.652 C 60.328,137.652 59.479,137.27 59.479,136.313 C 59.479,135.778 59.827,135.202 60.597,134.894 C 61.172,135.008 62.056,135.082 62.785,135.082 C 68.159,135.082 71.044,132.164 71.044,128.021 C 71.044,126.635 70.542,125.484 69.738,124.829 L 72.65,124.829 L 72.65,121.602 L 66.205,121.602 C 65.168,121.368 64.21,121.221 63.059,121.221 C 57.597,121.221 54.525,124.601 54.525,128.629 C 54.525,131.012 55.489,132.973 57.37,134.011 C 56.025,134.586 55.182,135.884 55.182,137.27 C 55.182,138.541 55.911,139.539 57.063,140.115 C 55.417,140.958 53.991,142.759 53.991,144.914 C 53.991,148.602 57.103,150.529 62.096,150.529 C 68.24,150.528 72.383,147.256 72.383,143.187 M 67.088,128.288 C 67.088,130.777 65.395,132.203 62.825,132.203 C 60.054,132.203 58.521,130.737 58.521,128.241 C 58.521,125.898 60.134,124.245 62.865,124.245 C 65.509,124.245 67.088,125.751 67.088,128.288"
   id="path13" />
	<path
   d="M 92.923,129.479 C 92.923,124.941 90.587,121.22 85.132,121.22 C 79.557,121.22 76.411,125.516 76.411,131.279 C 76.411,137.999 79.678,141.071 85.634,141.071 C 87.97,141.071 90.313,140.649 92.24,139.846 L 91.851,136.579 C 90.279,137.343 88.244,137.804 86.283,137.804 C 82.481,137.804 80.52,135.81 80.635,131.4 L 92.816,131.4 C 92.889,130.664 92.923,130.015 92.923,129.479 M 88.821,128.516 L 80.709,128.516 C 81.063,125.939 82.67,124.245 84.973,124.245 C 87.395,124.245 88.894,125.898 88.821,128.516"
   id="path15" />
	<path
   d="M 110.747,140.689 L 110.747,128.401 C 110.747,126.018 110.091,124.633 107.909,124.633 C 105.024,124.633 102.909,127.664 102.909,131.473 L 102.909,140.689 L 98.806,140.689 L 98.806,121.601 L 102.721,121.601 C 102.721,122.605 102.641,124.245 102.453,125.323 L 102.493,125.363 C 103.604,122.907 105.906,121.22 109.133,121.22 C 113.47,121.22 114.815,123.944 114.815,127.324 L 114.815,140.689 L 110.747,140.689 z "
   id="path17" />
	<path
   d="M 138.662,130.777 C 138.662,124.057 135.055,121.22 129.948,121.22 C 124.152,121.22 120.43,125.63 120.43,131.4 C 120.43,138.12 123.884,141.071 129.178,141.071 C 134.827,141.071 138.662,136.654 138.662,130.777 M 128.181,115.646 C 128.181,114.38 127.143,113.343 125.838,113.343 C 124.533,113.343 123.535,114.38 123.535,115.646 C 123.535,116.958 124.533,117.995 125.838,117.995 C 127.143,117.995 128.181,116.957 128.181,115.646 M 135.71,115.646 C 135.71,114.38 134.666,113.343 133.407,113.343 C 132.095,113.343 131.065,114.38 131.065,115.646 C 131.065,116.958 132.095,117.995 133.407,117.995 C 134.667,117.994 135.71,116.957 135.71,115.646 M 134.446,131.045 C 134.446,135.47 132.217,137.537 129.56,137.537 C 126.373,137.537 124.687,135.275 124.687,130.972 C 124.687,126.595 127.11,124.674 129.606,124.674 C 132.866,124.674 134.446,126.977 134.446,131.045"
   id="path19" />
	<path
   d="M 147.497,141.071 C 146.078,141.071 144.652,140.917 143.468,140.689 L 143.588,137.196 C 144.773,137.537 146.273,137.804 147.732,137.804 C 149.961,137.804 151.493,136.847 151.493,135.275 C 151.493,131.44 143.121,133.742 143.121,127.136 C 143.121,123.829 145.805,121.22 150.991,121.22 C 152.102,121.22 153.414,121.366 154.565,121.561 L 154.451,124.908 C 153.301,124.559 151.955,124.366 150.73,124.366 C 148.461,124.366 147.35,125.289 147.35,126.749 C 147.35,130.437 155.789,128.556 155.789,134.894 C 155.789,138.461 152.61,141.071 147.497,141.071"
   id="path21" />
	<path
   d="M 164.891,141.071 C 163.472,141.071 162.053,140.917 160.862,140.689 L 160.976,137.196 C 162.173,137.537 163.666,137.804 165.125,137.804 C 167.354,137.804 168.886,136.847 168.886,135.275 C 168.886,131.44 160.514,133.742 160.514,127.136 C 160.514,123.829 163.204,121.22 168.384,121.22 C 169.502,121.22 170.814,121.366 171.958,121.561 L 171.852,124.908 C 170.694,124.559 169.348,124.366 168.123,124.366 C 165.854,124.366 164.743,125.289 164.743,126.749 C 164.743,130.437 173.189,128.556 173.189,134.894 C 173.19,138.461 170.004,141.071 164.891,141.071"
   id="path23" />
	<path
   d="M 179.14,121.602 L 183.249,121.602 L 183.249,140.69 L 179.14,140.69 L 179.14,121.602 z M 181.215,118.758 C 179.755,118.758 178.565,117.607 178.565,116.188 C 178.565,114.762 179.755,113.611 181.215,113.611 C 182.633,113.611 183.824,114.729 183.824,116.188 C 183.825,117.606 182.633,118.758 181.215,118.758"
   id="path25" />
	<path
   d="M 193.624,141.071 C 192.205,141.071 190.779,140.917 189.595,140.689 L 189.702,137.196 C 190.893,137.537 192.392,137.804 193.851,137.804 C 196.08,137.804 197.619,136.847 197.619,135.275 C 197.619,131.44 189.247,133.742 189.247,127.136 C 189.247,123.829 191.931,121.22 197.117,121.22 C 198.228,121.22 199.54,121.366 200.691,121.561 L 200.571,124.908 C 199.42,124.559 198.074,124.366 196.849,124.366 C 194.58,124.366 193.462,125.289 193.462,126.749 C 193.462,130.437 201.915,128.556 201.915,134.894 C 201.916,138.461 198.73,141.071 193.624,141.071"
   id="path27" />
	<path
   d="M 214.82,140.998 C 209.907,140.998 206.333,138.581 206.333,131.781 C 206.333,125.718 209.445,121.294 216.012,121.294 C 217.431,121.294 218.89,121.488 220.161,121.869 L 219.732,125.443 C 218.581,125.014 217.283,124.714 215.897,124.714 C 212.404,124.714 210.629,127.284 210.629,131.314 C 210.629,134.814 211.901,137.464 215.702,137.464 C 217.161,137.464 218.734,137.122 219.851,136.547 L 220.2,140.04 C 218.929,140.536 216.928,140.998 214.82,140.998"
   id="path29" />
	<path
   d="M 237.595,140.689 L 237.595,128.401 C 237.595,126.018 236.939,124.633 234.75,124.633 C 231.872,124.633 229.758,127.664 229.758,131.506 L 229.758,140.689 L 225.649,140.689 L 225.649,112.653 L 229.758,112.653 L 229.758,121.294 C 229.758,122.485 229.684,124.099 229.409,125.136 L 229.489,125.176 C 230.6,122.793 232.869,121.221 235.981,121.221 C 240.318,121.221 241.664,123.945 241.664,127.325 L 241.664,140.69 L 237.595,140.69 L 237.595,140.689 z "
   id="path31" />
	<path
   d="M 263.865,129.479 C 263.865,124.941 261.522,121.22 256.067,121.22 C 250.499,121.22 247.346,125.516 247.346,131.279 C 247.346,137.999 250.613,141.071 256.563,141.071 C 258.905,141.071 261.254,140.649 263.168,139.846 L 262.786,136.579 C 261.207,137.343 259.172,137.804 257.218,137.804 C 253.416,137.804 251.455,135.81 251.576,131.4 L 263.743,131.4 C 263.825,130.664 263.865,130.015 263.865,129.479 M 259.749,128.516 L 251.65,128.516 C 251.992,125.939 253.611,124.245 255.914,124.245 C 258.33,124.245 259.835,125.898 259.749,128.516"
   id="path33" />
	<polygon
   points="286.895,118.302 286.895,140.689 282.711,140.689 282.711,118.302 275.611,118.302 275.611,114.762 294.042,114.762 294.042,118.302 286.895,118.302 "
   id="polygon35" />
	<path
   d="M 310.581,129.479 C 310.581,124.941 308.245,121.22 302.79,121.22 C 297.222,121.22 294.076,125.516 294.076,131.279 C 294.076,137.999 297.336,141.071 303.292,141.071 C 305.635,141.071 307.971,140.649 309.898,139.846 L 309.516,136.579 C 307.937,137.343 305.902,137.804 303.941,137.804 C 300.139,137.804 298.178,135.81 298.299,131.4 L 310.473,131.4 C 310.547,130.664 310.581,130.015 310.581,129.479 M 306.478,128.516 L 298.373,128.516 C 298.722,125.939 300.334,124.245 302.644,124.245 C 305.059,124.245 306.551,125.898 306.478,128.516"
   id="path37" />
	<path
   d="M 323.411,140.998 C 318.499,140.998 314.932,138.581 314.932,131.781 C 314.932,125.718 318.043,121.294 324.603,121.294 C 326.022,121.294 327.488,121.488 328.752,121.869 L 328.323,125.443 C 327.173,125.014 325.874,124.714 324.488,124.714 C 320.995,124.714 319.227,127.284 319.227,131.314 C 319.227,134.814 320.493,137.464 324.294,137.464 C 325.753,137.464 327.332,137.122 328.443,136.547 L 328.784,140.04 C 327.527,140.536 325.526,140.998 323.411,140.998"
   id="path39" />
	<path
   d="M 346.186,140.689 L 346.186,128.401 C 346.186,126.018 345.537,124.633 343.342,124.633 C 340.463,124.633 338.356,127.664 338.356,131.506 L 338.356,140.689 L 334.24,140.689 L 334.24,112.653 L 338.356,112.653 L 338.356,121.294 C 338.356,122.485 338.275,124.099 338.001,125.136 L 338.089,125.176 C 339.199,122.793 341.469,121.221 344.574,121.221 C 348.917,121.221 350.256,123.945 350.256,127.325 L 350.256,140.69 L 346.186,140.69 L 346.186,140.689 z "
   id="path41" />
	<path
   d="M 369.417,140.689 L 369.417,128.401 C 369.417,126.018 368.768,124.633 366.579,124.633 C 363.694,124.633 361.586,127.664 361.586,131.473 L 361.586,140.689 L 357.483,140.689 L 357.483,121.601 L 361.391,121.601 C 361.391,122.605 361.318,124.245 361.123,125.323 L 361.156,125.363 C 362.274,122.907 364.583,121.22 367.809,121.22 C 372.146,121.22 373.491,123.944 373.491,127.324 L 373.491,140.689 L 369.417,140.689 z "
   id="path43" />
	<path
   d="M 380.714,121.602 L 384.823,121.602 L 384.823,140.69 L 380.714,140.69 L 380.714,121.602 z M 382.783,118.758 C 381.324,118.758 380.139,117.607 380.139,116.188 C 380.139,114.762 381.324,113.611 382.783,113.611 C 384.209,113.611 385.393,114.729 385.393,116.188 C 385.393,117.606 384.208,118.758 382.783,118.758"
   id="path45" />
	<path
   d="M 395.191,141.071 C 393.772,141.071 392.346,140.917 391.162,140.689 L 391.276,137.196 C 392.461,137.537 393.96,137.804 395.425,137.804 C 397.647,137.804 399.187,136.847 399.187,135.275 C 399.187,131.44 390.807,133.742 390.807,127.136 C 390.807,123.829 393.504,121.22 398.685,121.22 C 399.802,121.22 401.101,121.366 402.252,121.561 L 402.138,124.908 C 400.987,124.559 399.642,124.366 398.417,124.366 C 396.147,124.366 395.037,125.289 395.037,126.749 C 395.037,130.437 403.49,128.556 403.49,134.894 C 403.491,138.461 400.304,141.071 395.191,141.071"
   id="path47" />
	<path
   d="M 416.394,140.998 C 411.475,140.998 407.901,138.581 407.901,131.781 C 407.901,125.718 411.013,121.294 417.579,121.294 C 418.998,121.294 420.457,121.488 421.728,121.869 L 421.306,125.443 C 420.156,125.014 418.85,124.714 417.465,124.714 C 413.964,124.714 412.204,127.284 412.204,131.314 C 412.204,134.814 413.475,137.464 417.27,137.464 C 418.729,137.464 420.308,137.122 421.426,136.547 L 421.767,140.04 C 420.497,140.536 418.502,140.998 416.394,140.998"
   id="path49" />
	<path
   d="M 439.169,140.689 L 439.169,128.401 C 439.169,126.018 438.507,124.633 436.324,124.633 C 433.44,124.633 431.325,127.664 431.325,131.506 L 431.325,140.689 L 427.222,140.689 L 427.222,112.653 L 431.325,112.653 L 431.325,121.294 C 431.325,122.485 431.252,124.099 430.983,125.136 L 431.057,125.176 C 432.167,122.793 434.437,121.221 437.549,121.221 C 441.886,121.221 443.231,123.945 443.231,127.325 L 443.231,140.69 L 439.169,140.69 L 439.169,140.689 z "
   id="path51" />
	<path
   d="M 465.432,129.479 C 465.432,124.941 463.09,121.22 457.635,121.22 C 452.067,121.22 448.921,125.516 448.921,131.279 C 448.921,137.999 452.18,141.071 458.137,141.071 C 460.473,141.071 462.822,140.649 464.736,139.846 L 464.355,136.579 C 462.775,137.343 460.748,137.804 458.787,137.804 C 454.985,137.804 453.024,135.81 453.144,131.4 L 465.312,131.4 C 465.392,130.664 465.432,130.015 465.432,129.479 M 461.323,128.516 L 453.219,128.516 C 453.567,125.939 455.18,124.245 457.482,124.245 C 459.897,124.245 461.403,125.898 461.323,128.516"
   id="path53" />
	<polygon
   points="497.343,140.689 497.343,129.051 485.096,129.051 485.096,140.689 480.906,140.689 480.906,114.762 485.096,114.762 485.096,125.483 497.343,125.483 497.343,114.762 501.494,114.762 501.494,140.689 497.343,140.689 "
   id="polygon55" />
	<path
   d="M 525.38,130.777 C 525.38,124.057 521.773,121.22 516.658,121.22 C 510.862,121.22 507.141,125.63 507.141,131.4 C 507.141,138.12 510.594,141.071 515.888,141.071 C 521.539,141.071 525.38,136.654 525.38,130.777 M 521.157,131.045 C 521.157,135.47 518.928,137.537 516.278,137.537 C 513.092,137.537 511.399,135.275 511.399,130.972 C 511.399,126.595 513.822,124.674 516.318,124.674 C 519.578,124.674 521.157,126.977 521.157,131.045"
   id="path57" />
	<path
   d="M 538.016,140.998 C 533.103,140.998 529.53,138.581 529.53,131.781 C 529.53,125.718 532.635,121.294 539.208,121.294 C 540.627,121.294 542.086,121.488 543.351,121.869 L 542.929,125.443 C 541.779,125.014 540.473,124.714 539.094,124.714 C 535.594,124.714 533.827,127.284 533.827,131.314 C 533.827,134.814 535.098,137.464 538.899,137.464 C 540.359,137.464 541.938,137.122 543.043,136.547 L 543.391,140.04 C 542.125,140.536 540.125,140.998 538.016,140.998"
   id="path59" />
	<path
   d="M 560.792,140.689 L 560.792,128.401 C 560.792,126.018 560.136,124.633 557.948,124.633 C 555.069,124.633 552.955,127.664 552.955,131.506 L 552.955,140.689 L 548.846,140.689 L 548.846,112.653 L 552.955,112.653 L 552.955,121.294 C 552.955,122.485 552.881,124.099 552.606,125.136 L 552.687,125.176 C 553.797,122.793 556.067,121.221 559.178,121.221 C 563.516,121.221 564.861,123.945 564.861,127.325 L 564.861,140.69 L 560.792,140.69 L 560.792,140.689 z "
   id="path61" />
	<path
   d="M 575.228,141.071 C 573.802,141.071 572.383,140.917 571.192,140.689 L 571.306,137.196 C 572.504,137.537 573.996,137.804 575.462,137.804 C 577.684,137.804 579.224,136.847 579.224,135.275 C 579.224,131.44 570.851,133.742 570.851,127.136 C 570.851,123.829 573.535,121.22 578.722,121.22 C 579.832,121.22 581.145,121.366 582.295,121.561 L 582.182,124.908 C 581.024,124.559 579.686,124.366 578.453,124.366 C 576.184,124.366 575.08,125.289 575.08,126.749 C 575.08,130.437 583.519,128.556 583.519,134.894 C 583.52,138.461 580.334,141.071 575.228,141.071"
   id="path63" />
	<path
   d="M 596.424,140.998 C 591.512,140.998 587.945,138.581 587.945,131.781 C 587.945,125.718 591.05,121.294 597.623,121.294 C 599.035,121.294 600.501,121.488 601.766,121.869 L 601.344,125.443 C 600.193,125.014 598.888,124.714 597.502,124.714 C 594.009,124.714 592.241,127.284 592.241,131.314 C 592.241,134.814 593.507,137.464 597.308,137.464 C 598.774,137.464 600.346,137.122 601.457,136.547 L 601.805,140.04 C 600.541,140.536 598.54,140.998 596.424,140.998"
   id="path65" />
	<path
   d="M 619.2,140.689 L 619.2,128.401 C 619.2,126.018 618.552,124.633 616.356,124.633 C 613.477,124.633 611.37,127.664 611.37,131.506 L 611.37,140.689 L 607.254,140.689 L 607.254,112.653 L 611.37,112.653 L 611.37,121.294 C 611.37,122.485 611.29,124.099 611.015,125.136 L 611.103,125.176 C 612.213,122.793 614.482,121.221 617.587,121.221 C 621.931,121.221 623.27,123.945 623.27,127.325 L 623.27,140.69 L 619.2,140.69 L 619.2,140.689 z "
   id="path67" />
	<path
   d="M 642.591,140.689 C 642.591,139.692 642.664,138.039 642.859,136.961 L 642.819,136.928 C 641.708,139.377 639.406,141.071 636.18,141.071 C 631.836,141.071 630.491,138.347 630.491,134.967 L 630.491,121.601 L 634.56,121.601 L 634.56,133.889 C 634.56,136.272 635.215,137.651 637.405,137.651 C 640.283,137.651 642.397,134.619 642.397,130.824 L 642.397,121.601 L 646.506,121.601 L 646.506,140.689 L 642.591,140.689 z "
   id="path69" />
	<rect
   width="4.1090002"
   height="28.035999"
   x="653.72803"
   y="112.653"
   id="rect71" />
	<path
   d="M 680.031,129.479 C 680.031,124.941 677.689,121.22 672.234,121.22 C 666.666,121.22 663.52,125.516 663.52,131.279 C 663.52,137.999 666.786,141.071 672.736,141.071 C 675.079,141.071 677.421,140.649 679.341,139.846 L 678.953,136.579 C 677.38,137.343 675.352,137.804 673.391,137.804 C 669.589,137.804 667.628,135.81 667.742,131.4 L 679.917,131.4 C 679.991,130.664 680.031,130.015 680.031,129.479 M 675.928,128.516 L 667.817,128.516 C 668.171,125.939 669.778,124.245 672.08,124.245 C 674.502,124.245 676.002,125.898 675.928,128.516"
   id="path73" />
	<path
   d="M 694.24,140.689 L 694.24,137.503 L 704.46,121.253 C 705.076,120.263 705.685,119.372 706.374,118.448 C 705.264,118.488 703.765,118.488 701.114,118.488 L 694.622,118.488 L 694.622,114.76 L 711.334,114.76 L 711.334,118.067 L 700.578,134.852 C 700.157,135.581 699.735,136.191 699.233,136.927 C 699.929,136.846 701.997,136.846 705.303,136.846 L 711.481,136.846 L 711.481,140.688 L 694.24,140.688 L 694.24,140.689 z "
   id="path75" />
	<path
   d="M 728.875,140.689 C 728.875,139.692 728.955,138.039 729.143,136.961 L 729.11,136.928 C 727.992,139.377 725.69,141.071 722.464,141.071 C 718.127,141.071 716.782,138.347 716.782,134.967 L 716.782,121.601 L 720.85,121.601 L 720.85,133.889 C 720.85,136.272 721.499,137.651 723.695,137.651 C 726.573,137.651 728.688,134.619 728.688,130.824 L 728.688,121.601 L 732.797,121.601 L 732.797,140.689 L 728.875,140.689 z M 720.81,117.994 C 719.505,117.994 718.508,116.957 718.508,115.645 C 718.508,114.379 719.505,113.342 720.81,113.342 C 722.123,113.342 723.153,114.379 723.153,115.645 C 723.153,116.957 722.123,117.994 720.81,117.994 M 728.374,117.994 C 727.075,117.994 726.038,116.957 726.038,115.645 C 726.038,114.379 727.075,113.342 728.374,113.342 C 729.645,113.342 730.689,114.379 730.689,115.645 C 730.689,116.957 729.645,117.994 728.374,117.994"
   id="path77" />
	<path
   d="M 749.77,125.249 C 745.969,124.56 744.128,127.21 744.128,132.933 L 744.128,140.69 L 740.012,140.69 L 740.012,121.602 L 743.934,121.602 C 743.934,122.68 743.814,124.367 743.552,125.826 L 743.626,125.826 C 744.469,123.256 746.383,120.873 749.964,121.222 L 749.77,125.249 z "
   id="path79" />
	<path
   d="M 758.987,121.602 L 754.871,121.602 L 754.871,140.69 L 758.987,140.69 L 758.987,121.602 z M 759.569,116.188 C 759.569,114.729 758.378,113.611 756.945,113.611 C 755.486,113.611 754.301,114.762 754.301,116.188 C 754.301,117.607 755.486,118.758 756.945,118.758 C 758.377,118.758 759.569,117.606 759.569,116.188"
   id="path81" />
	<path
   d="M 773.155,140.998 C 768.243,140.998 764.676,138.581 764.676,131.781 C 764.676,125.718 767.781,121.294 774.347,121.294 C 775.766,121.294 777.225,121.488 778.496,121.869 L 778.068,125.443 C 776.917,125.014 775.618,124.714 774.233,124.714 C 770.739,124.714 768.972,127.284 768.972,131.314 C 768.972,134.814 770.237,137.464 774.038,137.464 C 775.497,137.464 777.07,137.122 778.187,136.547 L 778.535,140.04 C 777.271,140.536 775.27,140.998 773.155,140.998"
   id="path83" />
	<path
   d="M 795.93,140.689 L 795.93,128.401 C 795.93,126.018 795.282,124.633 793.086,124.633 C 790.208,124.633 788.1,127.664 788.1,131.506 L 788.1,140.689 L 783.984,140.689 L 783.984,112.653 L 788.1,112.653 L 788.1,121.294 C 788.1,122.485 788.02,124.099 787.746,125.136 L 787.833,125.176 C 788.944,122.793 791.213,121.221 794.318,121.221 C 798.662,121.221 800,123.945 800,127.325 L 800,140.69 L 795.93,140.69 L 795.93,140.689 z "
   id="path85" />
	<path
   d="M 5.796,192.579 C 3.909,192.579 2.068,192.351 0.576,191.97 L 0.804,188.015 C 2.263,188.55 4.298,188.972 6.178,188.972 C 9.023,188.972 11.325,187.781 11.325,184.977 C 11.325,179.522 0.001,181.825 0.001,173.458 C 0.001,169 3.495,165.889 9.518,165.889 C 11.058,165.889 12.63,166.082 14.203,166.35 L 13.975,170.079 C 12.475,169.61 10.829,169.343 9.29,169.343 C 6.064,169.343 4.411,170.849 4.411,172.99 C 4.411,178.177 15.742,176.262 15.742,184.361 C 15.741,189.126 11.98,192.579 5.796,192.579"
   id="path87" />
	<path
   d="M 42.078,192.191 L 37.547,192.191 L 34.247,182.205 C 33.826,180.947 33.477,179.636 33.137,178.176 L 33.097,178.176 C 32.708,179.869 32.286,181.369 31.791,182.975 L 28.906,192.192 L 24.569,192.192 L 18.693,173.11 L 23.184,173.11 L 25.72,181.985 C 26.222,183.786 26.758,185.592 27.146,187.319 L 27.179,187.319 C 27.561,185.438 28.023,183.746 28.525,182.099 L 31.37,173.11 L 35.513,173.11 L 38.391,181.945 C 39.127,184.248 39.508,185.673 39.89,187.319 L 39.937,187.319 C 40.319,185.552 40.7,184.053 41.276,182.132 L 43.926,173.11 L 48.189,173.11 L 42.078,192.191 z "
   id="path89" />
	<path
   d="M 52.907,173.109 L 57.016,173.109 L 57.016,192.191 L 52.907,192.191 L 52.907,173.109 z M 54.981,170.272 C 53.522,170.272 52.332,169.121 52.332,167.695 C 52.332,166.276 53.522,165.125 54.981,165.125 C 56.4,165.125 57.591,166.236 57.591,167.695 C 57.591,169.121 56.4,170.272 54.981,170.272"
   id="path91" />
	<path
   d="M 67.39,192.579 C 65.971,192.579 64.552,192.425 63.361,192.191 L 63.468,188.697 C 64.659,189.045 66.158,189.313 67.624,189.313 C 69.846,189.313 71.385,188.356 71.385,186.776 C 71.385,182.941 63.006,185.244 63.006,178.637 C 63.006,175.331 65.703,172.721 70.883,172.721 C 72.001,172.721 73.299,172.881 74.45,173.069 L 74.337,176.409 C 73.186,176.068 71.84,175.874 70.615,175.874 C 68.346,175.874 67.235,176.791 67.235,178.257 C 67.235,181.945 75.681,180.064 75.681,186.395 C 75.682,189.969 72.497,192.579 67.39,192.579"
   id="path93" />
	<path
   d="M 84.792,192.579 C 83.366,192.579 81.947,192.425 80.756,192.191 L 80.87,188.697 C 82.061,189.045 83.554,189.313 85.013,189.313 C 87.242,189.313 88.781,188.356 88.781,186.776 C 88.781,182.941 80.409,185.244 80.409,178.637 C 80.409,175.331 83.099,172.721 88.286,172.721 C 89.397,172.721 90.696,172.881 91.853,173.069 L 91.74,176.409 C 90.589,176.068 89.243,175.874 88.011,175.874 C 85.749,175.874 84.631,176.791 84.631,178.257 C 84.631,181.945 93.084,180.064 93.084,186.395 C 93.083,189.969 89.898,192.579 84.792,192.579"
   id="path95" />
	<polygon
   points="112.821,169.804 112.821,177.413 121.656,177.413 121.656,180.833 112.821,180.833 112.821,192.191 108.631,192.191 108.631,166.276 122.158,166.276 122.158,169.804 112.821,169.804 "
   id="polygon97" />
	<path
   d="M 141.888,180.98 C 141.888,176.449 139.538,172.721 134.083,172.721 C 128.521,172.721 125.369,177.025 125.369,182.781 C 125.369,189.507 128.636,192.579 134.586,192.579 C 136.928,192.579 139.277,192.157 141.191,191.348 L 140.809,188.088 C 139.23,188.859 137.195,189.314 135.241,189.314 C 131.439,189.314 129.478,187.319 129.599,182.902 L 141.766,182.902 C 141.848,182.172 141.888,181.522 141.888,180.98 M 137.772,180.023 L 129.673,180.023 C 130.015,177.446 131.634,175.759 133.937,175.759 C 136.353,175.76 137.859,177.413 137.772,180.023"
   id="path99" />
	<path
   d="M 163.158,192.191 L 163.158,164.161 L 159.089,164.161 L 159.089,172.956 C 158.052,172.882 157.128,172.802 156.211,172.802 C 150.026,172.802 146.226,177.026 146.226,183.591 C 146.226,189.126 148.568,192.579 153.253,192.579 C 156.211,192.579 158.44,190.966 159.471,188.624 L 159.558,188.624 C 159.357,189.701 159.284,191.2 159.284,192.191 L 163.158,192.191 L 163.158,192.191 z M 159.088,182.326 C 159.088,185.592 157.401,189.199 154.362,189.199 C 151.753,189.199 150.561,187.044 150.561,183.209 C 150.561,178.063 152.79,176.068 156.055,176.068 C 157.052,176.068 158.05,176.181 159.087,176.409 L 159.087,182.326 L 159.088,182.326 z "
   id="path101" />
	<path
   d="M 185.358,180.98 C 185.358,176.449 183.015,172.721 177.561,172.721 C 171.992,172.721 168.839,177.025 168.839,182.781 C 168.839,189.507 172.112,192.579 178.056,192.579 C 180.398,192.579 182.747,192.157 184.661,191.348 L 184.279,188.088 C 182.714,188.859 180.666,189.314 178.717,189.314 C 174.909,189.314 172.947,187.319 173.069,182.902 L 185.236,182.902 C 185.318,182.172 185.358,181.522 185.358,180.98 M 181.242,180.023 L 173.143,180.023 C 173.492,177.446 175.104,175.759 177.407,175.759 C 179.823,175.76 181.329,177.413 181.242,180.023"
   id="path103" />
	<path
   d="M 200.992,176.758 C 197.184,176.069 195.344,178.712 195.344,184.434 L 195.344,192.192 L 191.228,192.192 L 191.228,173.11 L 195.15,173.11 C 195.15,174.181 195.037,175.875 194.769,177.334 L 194.842,177.334 C 195.686,174.757 197.613,172.381 201.18,172.723 L 200.992,176.758 z "
   id="path105" />
	<path
   d="M 219.498,192.191 C 219.418,190.585 219.378,188.624 219.378,186.97 L 219.378,179.179 C 219.378,175.257 217.765,172.721 211.929,172.721 C 209.473,172.721 207.09,173.263 205.209,173.992 L 205.598,177.486 C 207.203,176.482 209.506,175.953 211.28,175.953 C 214.272,175.953 215.276,177.178 215.276,179.56 L 215.276,180.785 C 208.402,180.785 204.018,183.322 204.018,187.706 C 204.018,190.731 206.1,192.578 209.359,192.578 C 212.398,192.578 214.774,190.891 215.697,188.623 L 215.731,188.663 C 215.584,189.7 215.543,190.965 215.543,192.19 L 219.498,192.19 L 219.498,192.191 z M 215.275,183.938 C 215.275,186.663 213.394,189.353 210.583,189.353 C 208.978,189.353 207.974,188.429 207.974,187.01 C 207.974,185.357 209.286,183.55 215.276,183.55 L 215.276,183.938 L 215.275,183.938 z "
   id="path107" />
	<rect
   width="4.1030002"
   height="28.035999"
   x="226.679"
   y="164.161"
   id="rect109" />
	<rect
   width="4.1890001"
   height="25.915001"
   x="247.608"
   y="166.276"
   id="rect111" />
	<path
   d="M 271,192.191 L 271,179.903 C 271,177.527 270.337,176.141 268.155,176.141 C 265.277,176.141 263.162,179.179 263.162,182.974 L 263.162,192.191 L 259.053,192.191 L 259.053,173.109 L 262.975,173.109 C 262.975,174.107 262.888,175.759 262.701,176.838 L 262.741,176.871 C 263.852,174.415 266.155,172.722 269.381,172.722 C 273.725,172.722 275.069,175.452 275.069,178.832 L 275.069,192.191 L 271,192.191 L 271,192.191 z "
   id="path113" />
	<path
   d="M 285.429,192.579 C 284.01,192.579 282.591,192.425 281.4,192.191 L 281.52,188.697 C 282.711,189.045 284.204,189.313 285.663,189.313 C 287.892,189.313 289.425,188.356 289.425,186.776 C 289.425,182.941 281.059,185.244 281.059,178.637 C 281.059,175.331 283.744,172.721 288.93,172.721 C 290.041,172.721 291.353,172.881 292.504,173.069 L 292.39,176.409 C 291.239,176.068 289.894,175.874 288.662,175.874 C 286.399,175.874 285.282,176.791 285.282,178.257 C 285.282,181.945 293.728,180.064 293.728,186.395 C 293.728,189.969 290.542,192.579 285.429,192.579"
   id="path115" />
	<path
   d="M 305.789,192.546 C 301.713,192.546 300.488,190.966 300.488,186.703 L 300.488,176.296 L 296.841,176.296 L 296.841,173.109 L 300.488,173.109 L 300.488,167.039 L 304.557,165.922 L 304.557,173.11 L 309.59,173.11 L 309.59,176.297 L 304.597,176.297 L 304.597,185.439 C 304.597,188.284 305.172,189.046 307.093,189.046 C 307.937,189.046 308.86,188.933 309.59,188.738 L 309.59,192.118 C 308.479,192.352 307.053,192.546 305.789,192.546"
   id="path117" />
	<path
   d="M 319.341,173.109 L 315.232,173.109 L 315.232,192.191 L 319.341,192.191 L 319.341,173.109 z M 319.917,167.695 C 319.917,166.236 318.732,165.125 317.313,165.125 C 315.854,165.125 314.663,166.276 314.663,167.695 C 314.663,169.121 315.854,170.272 317.313,170.272 C 318.732,170.272 319.917,169.121 319.917,167.695"
   id="path119" />
	<path
   d="M 332.673,192.546 C 328.604,192.546 327.372,190.966 327.372,186.703 L 327.372,176.296 L 323.718,176.296 L 323.718,173.109 L 327.372,173.109 L 327.372,167.039 L 331.435,165.922 L 331.435,173.11 L 336.475,173.11 L 336.475,176.297 L 331.482,176.297 L 331.482,185.439 C 331.482,188.284 332.058,189.046 333.972,189.046 C 334.822,189.046 335.739,188.933 336.475,188.738 L 336.475,192.118 C 335.357,192.352 333.938,192.546 332.673,192.546"
   id="path121" />
	<path
   d="M 354.211,192.191 C 354.211,191.2 354.291,189.546 354.484,188.469 L 354.444,188.429 C 353.334,190.892 351.024,192.578 347.805,192.578 C 343.461,192.578 342.116,189.848 342.116,186.468 L 342.116,173.109 L 346.185,173.109 L 346.185,185.397 C 346.185,187.78 346.841,189.166 349.03,189.166 C 351.908,189.166 354.023,186.127 354.023,182.326 L 354.023,173.109 L 358.132,173.109 L 358.132,192.191 L 354.211,192.191 L 354.211,192.191 z "
   id="path123" />
	<path
   d="M 371.458,192.546 C 367.382,192.546 366.157,190.966 366.157,186.703 L 366.157,176.296 L 362.51,176.296 L 362.51,173.109 L 366.157,173.109 L 366.157,167.039 L 370.226,165.922 L 370.226,173.11 L 375.259,173.11 L 375.259,176.297 L 370.266,176.297 L 370.266,185.439 C 370.266,188.284 370.841,189.046 372.762,189.046 C 373.606,189.046 374.53,188.933 375.259,188.738 L 375.259,192.118 C 374.149,192.352 372.723,192.546 371.458,192.546"
   id="path125" />
	<path
   d="M 395.88,180.98 C 395.88,176.449 393.544,172.721 388.09,172.721 C 382.515,172.721 379.369,177.025 379.369,182.781 C 379.369,189.507 382.635,192.579 388.592,192.579 C 390.928,192.579 393.27,192.157 395.191,191.348 L 394.803,188.088 C 393.237,188.859 391.202,189.314 389.24,189.314 C 385.439,189.314 383.478,187.319 383.592,182.902 L 395.767,182.902 C 395.847,182.172 395.88,181.522 395.88,180.98 M 391.778,180.023 L 383.667,180.023 C 384.021,177.446 385.628,175.759 387.93,175.759 C 390.359,175.76 391.851,177.413 391.778,180.023"
   id="path127" />
	<path
   d="M 427.993,182.292 C 427.993,175.566 424.379,172.722 419.272,172.722 C 413.476,172.722 409.748,177.146 409.748,182.902 C 409.748,189.622 413.202,192.58 418.503,192.58 C 424.144,192.579 427.993,188.162 427.993,182.292 M 423.763,182.56 C 423.763,186.971 421.534,189.045 418.89,189.045 C 415.704,189.045 414.011,186.776 414.011,182.48 C 414.011,178.103 416.427,176.182 418.924,176.182 C 422.19,176.182 423.763,178.484 423.763,182.56"
   id="path129" />
	<path
   d="M 445,167.615 C 444.156,167.347 443.232,167.233 442.39,167.233 C 439.927,167.233 438.816,168.579 438.816,171.57 L 438.816,173.109 L 443.775,173.109 L 443.775,176.296 L 438.816,176.296 L 438.816,192.192 L 434.747,192.192 L 434.747,176.296 L 431.093,176.296 L 431.093,173.109 L 434.747,173.109 L 434.747,171.643 C 434.747,166.423 437.243,163.886 442.196,163.886 C 443.273,163.886 444.311,164.007 445.308,164.241 L 445,167.615 z "
   id="path131" />
	<polygon
   points="465.693,169.804 465.693,192.191 461.503,192.191 461.503,169.804 454.403,169.804 454.403,166.276 472.841,166.276 472.841,169.804 465.693,169.804 "
   id="polygon133" />
	<path
   d="M 489.379,180.98 C 489.379,176.449 487.036,172.721 481.582,172.721 C 476.019,172.721 472.867,177.025 472.867,182.781 C 472.867,189.507 476.127,192.579 482.084,192.579 C 484.426,192.579 486.769,192.157 488.689,191.348 L 488.307,188.088 C 486.728,188.859 484.693,189.314 482.732,189.314 C 478.931,189.314 476.976,187.319 477.09,182.902 L 489.264,182.902 C 489.339,182.172 489.379,181.522 489.379,180.98 M 485.27,180.023 L 477.171,180.023 C 477.513,177.446 479.125,175.759 481.435,175.759 C 483.851,175.76 485.343,177.413 485.27,180.023"
   id="path135" />
	<path
   d="M 502.203,192.506 C 497.291,192.506 493.724,190.083 493.724,183.283 C 493.724,177.219 496.836,172.802 503.402,172.802 C 504.821,172.802 506.28,172.99 507.545,173.378 L 507.13,176.951 C 505.973,176.53 504.667,176.215 503.281,176.215 C 499.788,176.215 498.027,178.799 498.027,182.828 C 498.027,186.321 499.286,188.972 503.088,188.972 C 504.554,188.972 506.126,188.624 507.237,188.048 L 507.585,191.542 C 506.319,192.044 504.325,192.506 502.203,192.506"
   id="path137" />
	<path
   d="M 524.978,192.191 L 524.978,179.903 C 524.978,177.527 524.33,176.141 522.141,176.141 C 519.256,176.141 517.148,179.179 517.148,183.014 L 517.148,192.191 L 513.032,192.191 L 513.032,164.161 L 517.148,164.161 L 517.148,172.802 C 517.148,173.993 517.074,175.607 516.806,176.644 L 516.88,176.677 C 517.99,174.301 520.26,172.722 523.371,172.722 C 527.709,172.722 529.047,175.452 529.047,178.832 L 529.047,192.191 L 524.978,192.191 L 524.978,192.191 z "
   id="path139" />
	<path
   d="M 548.215,192.191 L 548.215,179.903 C 548.215,177.527 547.56,176.141 545.378,176.141 C 542.493,176.141 540.378,179.179 540.378,182.974 L 540.378,192.191 L 536.275,192.191 L 536.275,173.109 L 540.183,173.109 C 540.183,174.107 540.11,175.759 539.922,176.838 L 539.962,176.871 C 541.073,174.415 543.376,172.722 546.602,172.722 C 550.939,172.722 552.284,175.452 552.284,178.832 L 552.284,192.191 L 548.215,192.191 L 548.215,192.191 z "
   id="path141" />
	<path
   d="M 576.131,182.292 C 576.131,175.566 572.524,172.722 567.417,172.722 C 561.621,172.722 557.894,177.146 557.894,182.902 C 557.894,189.622 561.354,192.58 566.648,192.58 C 572.296,192.579 576.131,188.162 576.131,182.292 M 571.916,182.56 C 571.916,186.971 569.687,189.045 567.03,189.045 C 563.843,189.045 562.157,186.776 562.157,182.48 C 562.157,178.103 564.58,176.182 567.077,176.182 C 570.335,176.182 571.916,178.484 571.916,182.56"
   id="path143" />
	<rect
   width="4.1160002"
   height="28.035999"
   x="581.82098"
   y="164.161"
   id="rect145" />
	<path
   d="M 609.777,182.292 C 609.777,175.566 606.17,172.722 601.062,172.722 C 595.26,172.722 591.532,177.146 591.532,182.902 C 591.532,189.622 594.992,192.58 600.293,192.58 C 605.942,192.579 609.777,188.162 609.777,182.292 M 605.553,182.56 C 605.553,186.971 603.318,189.045 600.674,189.045 C 597.488,189.045 595.795,186.776 595.795,182.48 C 595.795,178.103 598.218,176.182 600.714,176.182 C 603.981,176.182 605.553,178.484 605.553,182.56"
   id="path147" />
	<path
   d="M 628.249,195.229 C 628.249,197.297 626.255,198.843 622.681,198.843 C 619.917,198.843 617.996,197.692 617.996,195.657 C 617.996,194.344 618.806,193.194 620.104,192.465 C 620.412,192.505 620.799,192.505 621.141,192.505 L 624.715,192.505 C 627.137,192.506 628.249,193.576 628.249,195.229 M 632.318,194.694 C 632.318,191.127 629.975,189.166 625.826,189.166 L 622.567,189.166 C 620.264,189.166 619.415,188.777 619.415,187.82 C 619.415,187.278 619.763,186.703 620.532,186.394 C 621.108,186.515 621.991,186.588 622.714,186.588 C 628.095,186.588 630.974,183.67 630.974,179.521 C 630.974,178.135 630.478,176.985 629.675,176.335 L 632.586,176.335 L 632.586,173.108 L 626.134,173.108 C 625.104,172.88 624.14,172.72 622.988,172.72 C 617.534,172.72 614.455,176.1 614.455,180.136 C 614.455,182.518 615.426,184.473 617.307,185.51 C 615.961,186.085 615.119,187.398 615.119,188.776 C 615.119,190.042 615.842,191.039 616.993,191.614 C 615.347,192.465 613.928,194.271 613.928,196.42 C 613.928,200.108 617.04,202.028 622.032,202.028 C 628.175,202.029 632.318,198.764 632.318,194.694 M 627.024,179.789 C 627.024,182.292 625.331,183.711 622.76,183.711 C 619.989,183.711 618.457,182.252 618.457,179.756 C 618.457,177.413 620.069,175.76 622.8,175.76 C 625.444,175.76 627.024,177.253 627.024,179.789"
   id="path149" />
	<path
   d="M 646.152,194.038 C 643.917,199.995 642.036,201.835 637.733,201.835 C 636.962,201.835 635.932,201.722 635.163,201.567 L 635.471,197.96 C 636.314,198.269 637.084,198.382 637.967,198.382 C 639.888,198.382 640.959,197.498 642.151,194.233 L 642.921,192.192 L 635.779,173.11 L 640.383,173.11 L 643.495,181.825 C 644.104,183.518 644.573,185.205 645.001,186.824 L 645.035,186.824 C 645.416,185.285 646.225,182.829 646.915,180.868 L 649.646,173.11 L 654.056,173.11 L 646.152,194.038 z "
   id="path151" />
	<path
   d="M 666.846,192.191 L 666.846,189.004 L 677.059,172.761 C 677.675,171.764 678.29,170.88 678.973,169.963 C 677.869,169.997 676.369,169.997 673.719,169.997 L 667.228,169.997 L 667.228,166.275 L 683.933,166.275 L 683.933,169.575 L 673.177,186.36 C 672.762,187.089 672.334,187.706 671.832,188.428 C 672.527,188.355 674.603,188.355 677.909,188.355 L 684.086,188.355 L 684.086,192.19 L 666.846,192.19 L 666.846,192.191 z "
   id="path153" />
	<path
   d="M 701.475,192.191 C 701.475,191.2 701.562,189.546 701.749,188.469 L 701.709,188.429 C 700.598,190.892 698.289,192.578 695.069,192.578 C 690.732,192.578 689.386,189.848 689.386,186.468 L 689.386,173.109 L 693.449,173.109 L 693.449,185.397 C 693.449,187.78 694.105,189.166 696.294,189.166 C 699.172,189.166 701.287,186.127 701.287,182.326 L 701.287,173.109 L 705.396,173.109 L 705.396,192.191 L 701.475,192.191 L 701.475,192.191 z "
   id="path155" />
	<path
   d="M 722.37,176.758 C 718.569,176.069 716.728,178.712 716.728,184.434 L 716.728,192.192 L 712.619,192.192 L 712.619,173.11 L 716.534,173.11 C 716.534,174.181 716.421,175.875 716.152,177.334 L 716.226,177.334 C 717.076,174.757 718.997,172.381 722.564,172.723 L 722.37,176.758 z "
   id="path157" />
	<path
   d="M 727.476,173.109 L 731.592,173.109 L 731.592,192.191 L 727.476,192.191 L 727.476,173.109 z M 729.558,170.272 C 728.099,170.272 726.901,169.121 726.901,167.695 C 726.901,166.276 728.099,165.125 729.558,165.125 C 730.977,165.125 732.168,166.236 732.168,167.695 C 732.168,169.121 730.977,170.272 729.558,170.272"
   id="path159" />
	<path
   d="M 745.754,192.506 C 740.842,192.506 737.275,190.083 737.275,183.283 C 737.275,177.219 740.387,172.802 746.946,172.802 C 748.365,172.802 749.838,172.99 751.095,173.378 L 750.68,176.951 C 749.53,176.53 748.217,176.215 746.832,176.215 C 743.345,176.215 741.578,178.799 741.578,182.828 C 741.578,186.321 742.843,188.972 746.638,188.972 C 748.097,188.972 749.676,188.624 750.794,188.048 L 751.135,191.542 C 749.871,192.044 747.876,192.506 745.754,192.506"
   id="path161" />
	<path
   d="M 768.53,192.191 L 768.53,179.903 C 768.53,177.527 767.882,176.141 765.693,176.141 C 762.815,176.141 760.7,179.179 760.7,183.014 L 760.7,192.191 L 756.591,192.191 L 756.591,164.161 L 760.7,164.161 L 760.7,172.802 C 760.7,173.993 760.62,175.607 760.352,176.644 L 760.432,176.677 C 761.549,174.301 763.812,172.722 766.917,172.722 C 771.261,172.722 772.605,175.452 772.605,178.832 L 772.605,192.191 L 768.53,192.191 L 768.53,192.191 z "
   id="path163" />
</g>
</svg>